<svg version="1" xmlns="http://www.w3.org/2000/svg" width="346.667" height="346.667" viewBox="0 0 260.000000 260.000000"><path d="M111 112.7c-3 1.1-5 3.7-5 6.5 0 1.8-.5 2.8-1.5 2.8s-1.5 1-1.5 2.9c0 1.6.6 3.1 1.5 3.5 1.2.4 1.5 2.5 1.5 10.1v9.5h7v-10c0-8.2.3-10 1.5-10 1 0 1.5-1 1.5-3s-.5-3-1.5-3c-.8 0-1.5-.5-1.5-1 0-.6.7-1.3 1.5-1.6.9-.4 1.5-1.9 1.5-4 0-3.5-1.2-4.1-5-2.7zM21.3 118.1c-5.7 2.8-8.3 7.2-8.3 13.9s2.7 11.2 8.4 13.9c4.7 2.3 7.4 2.6 12.8 1.1 3.4-1 8.8-5.9 8.8-8.1 0-1.3-8.7-1.1-9.5.2-1.2 1.9-4.9 2.7-7.8 1.7-2.9-1.1-5.7-5.3-5.7-8.8 0-3.5 2.8-7.7 5.7-8.8 2.9-1 6.6-.2 7.8 1.7.9 1.6 9.5 1.4 9.5-.2 0-2.1-5.3-6.7-9.1-7.7-5.1-1.5-7.9-1.2-12.6 1.1zM50 132v16h8v-13h5c4.9 0 5-.1 5-3s-.1-3-5-3h-5v-7h13v-6H50v16zM77 132v16h8v-13h5c4.9 0 5-.1 5-3s-.1-3-5-3h-5v-7h13v-6H77v16zM128.5 122.8c-5.7 2-8.5 6-8.5 12.4 0 4.1.5 5.4 3.4 8.5 3.1 3.4 3.8 3.7 8.9 3.7 6.9.1 10.6-2.3 12.7-8.2 2.8-8-2.2-15.9-10.6-16.7-2.1-.2-4.8-.1-5.9.3zm9.1 9.9c.9 3.6-.3 6.8-3.1 8.1-2.3 1.1-2.9.9-5-1.3-1.4-1.3-2.5-3.4-2.5-4.5 0-1.2 1.1-3.2 2.5-4.5 2.1-2.2 2.7-2.4 5-1.3 1.4.6 2.8 2.2 3.1 3.5zM152 135v13h8v-7.1c0-8.2 1.1-10.9 4.5-10.9 2.2 0 2.5-.4 2.5-4 0-4.6-.7-4.8-4.4-1.9l-2.6 2v-2c0-1.8-.6-2.1-4-2.1h-4v13zM172 130.4c0 4.5.5 9.7 1.1 11.5 1.9 5.3 9.1 7.8 13.7 4.5 2-1.4 2.2-1.4 2.2 0 0 1.2 1 1.6 4 1.6h4v-26h-8v8.8c0 8.4-.1 8.9-2.4 10-1.8.8-2.8.7-4.5-.4-1.9-1.3-2.1-2.5-2.1-10V122h-8v8.4zM205 135v13h8v-8.3c0-9.1.8-10.7 5.2-10.7 3.8 0 4.8 2.4 4.8 11.4v7.6h7v-7.8c0-7.9.9-10.4 4.1-11.5.9-.3 2.6.1 3.8.9 1.9 1.3 2.1 2.5 2.1 10v8.4h8.3l-.5-10c-.4-8.7-.8-10.4-2.8-12.5-3.4-3.6-8.1-4.2-12.6-1.6-3.3 2-3.8 2-5.3.7-2.7-2.5-7.6-3-11-1.3-2.6 1.3-3.1 1.3-3.1.1 0-1-1.2-1.4-4-1.4h-4v13z"/></svg>